<svg xmlns="http://www.w3.org/2000/svg" xmlns:xlink="http://www.w3.org/1999/xlink" viewBox="0 0 701 107.74"><defs><linearGradient id="a" x1="-28.88" y1="53.87" x2="705.38" y2="53.87" gradientTransform="translate(27.57) scale(0.95 1)" gradientUnits="userSpaceOnUse"><stop offset="0.04" stop-color="#395398"/><stop offset="0.42" stop-color="#3a559b"/><stop offset="0.68" stop-color="#3e5ba3"/><stop offset="0.89" stop-color="#4566b2"/><stop offset="0.99" stop-color="#4a6dbc"/></linearGradient></defs><title>Asset 6</title><path d="M700.23,41c-.13-.26-.39-.58-1.69-.69l-.8-.24a5.94,5.94,0,0,0-2.31-.79c-4.27-1-9.34-.9-14.65-.91-17.52,0-35.06.2-52.57-.22a23.48,23.48,0,0,1-3.75,0,7.72,7.72,0,0,1,2.57-.51c15.05-1.68,17.32-5.39,21.16-8.84.31-.28.19-.61-.38-.85-1.65-.71-.75-1.42-.11-2.11a25,25,0,0,1,4.65-3.87c2.59-1.71,1.71-2.22-4.69-2.89a42.64,42.64,0,0,0-6.56-.26c-1.69.14-3.12.43-4.86.54-.48,0-1,.08-1.42.14a50.52,50.52,0,0,1-7.35.44c-.79,0-1.57,0-2.34.08-2.24.09-4.85.69-6.64,0-2.8-1.12-6.93-1-11-.94-3.36,0-6.69.21-9.88.49-4.18.36-5.88-.12-6.43-1.12s-.07-1.73-.43-2.59c-.13-.39-1.06-.65-2.18-.89-4.43-1.25-9.8-1.74-16.49-1.73-10.68,0-21.37-.21-32.05-.3-2.6,0-3.51-.25-3.83-.92-.44-.9.58-1.82-.77-2.71-2.67-1.75-8.49-2.44-18.12-2.14a136.35,136.35,0,0,1-14-.09c-1.16-.06-2.34,0-3.52,0a58.73,58.73,0,0,1-7.51-.19c.94-.49,3-.57,3.45-1,1.07-1.13,3.7-1.95,7.55-2.58,2.08-.35,2.44-1.09,3.55-1.65.93-.47-.15-1.24-2.52-1.21-4.84.06-9.51-.5-14.43-.14-8.7.65-17.73.54-26.66.66-4.09,0-8.18.3-12.27,0-.52,0-1,0-1.55,0-11.4.53-23,.41-34.45.62-6.47.11-12.94.36-19.45.17-.56,0-1.12,0-1.67,0-5,.09-10.11,0-15.17.06-.61,0-1.2,0-1.79.07-1.62.12-3.27.17-5,.21-6.05.14-12.12.17-18.18.22a7,7,0,0,1,.86-.73c.71-.47-.11-1.24-1.91-1.21-3.68.06-7.22-.5-10.95-.14-6.61.65-13.46.54-20.23.66a80.32,80.32,0,0,1-9.31,0A11.47,11.47,0,0,0,311,.8c-8.65.53-17.43.41-26.14.62-4.91.11-9.83.36-14.76.17-.43,0-.85,0-1.27,0-3.83.09-7.68,0-11.52.06-.45,0-.91,0-1.35.07-1.23.12-2.49.17-3.77.21-9.17.28-18.39.14-27.56.48-.43,0-.86,0-1.29,0-5.22.5-10.64.57-16,.65-8.08.13-16.21.31-24.3,0-6-.05-11.91.12-17.84.39-.45,0-.9.06-1.34.11-4.24.29-8.57,0-12.82.2a11.49,11.49,0,0,0-1.23.15c-2.61,1-6.25,1.39-9.22,2.16-.28.09-.55.19-.78.29a10.8,10.8,0,0,1-1.82.71,13.81,13.81,0,0,0-2,.69c-1.58.78-4,.58-6.21.62-.85,0-1.69.05-2.51.12a60.57,60.57,0,0,1-12.88-.4,24.53,24.53,0,0,0-7.41,0,11.26,11.26,0,0,0-1.13.23,24.08,24.08,0,0,1-5.19,1.16c-.39.07-.77.14-1.12.24a16.82,16.82,0,0,0-4.38,1.36c-2,1.05-4.64,1.42-8.29,1.39-9.42-.06-18.84-.08-28.26,0-6.59.06-13.06.42-18.46,1.9l-1.09.25a37.83,37.83,0,0,0-7.51,2,8.53,8.53,0,0,0-.81.29A43,43,0,0,1,24.21,19a8.1,8.1,0,0,0-2,.75c-3.14,1.87-5.45,3.87-9.6,5.59-5.44,2.26-2.84,4.53,5.31,5.56,2.46.31,5.08.3,8.18.4-4.45,1.46-8.32,2.74-10,4.56l-.4.39-.28.75c-8.41,2.21-9.81,4-5,6.54a7.55,7.55,0,0,0,1.53.39c2.7.36,5.54.59,8.46.95-2.25,1.08-5.09,1.82-7.38,2.72-2.56,1-3,2.23-4.3,3.37h0a53.46,53.46,0,0,0-5.15,1.73c-3.79,1.6-4.68,3.06-1.6,4.36,2.48,1,2.41,1.93,1,3,.54,2.13,3.53,3.51,10,3.87l1.19.11c1.19.07,2.37.15,3.5.29.4,0,.8.07,1.21.08,1.28,0,2.57,0,3.85.07q.66,0,1.32,0h7.45l2.56,0c1.76,0,3.54-.09,5.41,0a15.81,15.81,0,0,1-2.62,1.36,4.75,4.75,0,0,0-.6.35,3.69,3.69,0,0,0-1.62,2.32,1.16,1.16,0,0,0,.34.37c.87.4,1.4.87,2.32,1.26h0c.19.61,1.55.87,2.94,1.12,2.15.38,4.49.59,6.75.87.39,0,.78.08,1.18.1,1,.11,3,0,1.82.71-.88.55-1.3,1.17-2.22,1.72-.17.11-.34.23-.49.35a9.32,9.32,0,0,1-4.29,1.7,4.64,4.64,0,0,0-2.78,1.36,2.28,2.28,0,0,0-.6,2.57,1.68,1.68,0,0,0,.36.41c1,1,3.2,1.64,5.79,2.15a3.84,3.84,0,0,0,1.58.11c.69,0,1.47-.16,1.82.19a5.33,5.33,0,0,0,2.31.45,50.31,50.31,0,0,1,5.38.21c.68.05,1.36.09,2.07.1,5.43.09,10.91-.16,16.31.23,1.74.09,3.5.14,5.27.1,9.33,0,18.65,0,28,0,7.24-.07,7.24-.07,4,2.22l-.09.06-.09.07c-2.15,1.27-6,2.2-6.67,3.78a1.72,1.72,0,0,0-.12,1.75,2.17,2.17,0,0,0,1,.77c.75.31,1.62.58,2.49.85.29.08.6.16.94.22.66.13,1.33.26,2,.37,1.61.25,3.29.45,5,.6.4,0,.81,0,1.22,0,5.58,0,11.19.16,16.61-.22a5.5,5.5,0,0,1-2.37.62c-3.88.47-5.91,1.42-6.86,2.73a4.78,4.78,0,0,1-1.36.91c-.45.7-1.27,1.38-1.09,2.11.22.47.77.91.89,1.39.48,1.88,1.43,2.27,6.36,2.78a15.31,15.31,0,0,0,3.37-.23,11.87,11.87,0,0,1,4.4.2,10.2,10.2,0,0,0,1.75,0,10.4,10.4,0,0,1,5.36.71,15.65,15.65,0,0,0,3.22,1.27,10,10,0,0,0,1.82.07c1.64-.15,3.31-.11,5-.12,10.95-.13,21.77-.83,32.74-.88a33.08,33.08,0,0,0,4.52-.31c4.35-.52,8.79-.94,13.2-1.4a43.92,43.92,0,0,0,5.6.66,26.49,26.49,0,0,0,4.44-.23,20.53,20.53,0,0,1,5.8.2,17.63,17.63,0,0,0,2.3,0,17.66,17.66,0,0,1,7.06.71,25.31,25.31,0,0,0,4.25,1.27,17.41,17.41,0,0,0,2.41.07c2.16-.15,4.36-.11,6.55-.12,14.43-.13,28.69-.83,43.14-.88a57.09,57.09,0,0,0,6-.31c7.6-.69,15.41-1.21,23-1.87,6-.52,12.07-1.09,18.6-1,4.27-.1,7.88-.7,11.85-1h-.08a23.48,23.48,0,0,0,4.67-.24h-.05c2.48-.38,5.45.1,7.91-.3h0A87.51,87.51,0,0,0,372,100.89c3.76-.6,7.78-1,12-1.29l-.1,0c3.42-.19,7-.17,10.28-.57h-.06c6.39-.54,13.94.07,19.55-1a98.5,98.5,0,0,1,20.74-1.48,9.1,9.1,0,0,0,1.58-.14l5.61-.06c2.14-.17,4.36,0,6.52-.12,4.12-.13,8.36-.17,11.34-1.08h0l.1,0-.07,0c2.54-.21,5.05-.43,5.72-1.23a4.69,4.69,0,0,1,2.16-.48c3.31-.22,4.58-1,6.85-1.56,7.12-.72,13.76-1.69,20.63-2.54,10.14-1.28,21.24-1.31,32.13-1.6,10-.31,18.86-1.25,25.58-3.28,2.42-.74,5.35-1.35,7.53-2.13.72-.29,1.53-.55,2.29-.83,3.49-1.29,5.77-2.82,12.86-3.27,10.12-.64,17.66-2.29,23.43-4.51a18.07,18.07,0,0,1,6.22-1.38c2-.12,2.72-.64,3-1.13.49-.91,2.79-1.4,5.61-1.87,6.36-1,8.4-3.16,15.07-4.17l.25,0s-.06,0,0-.1c.43-1.76,5.73-2.48,10.52-3.31,1.58-.22,2.55-.61,3.95-.88a18.39,18.39,0,0,0,3.32-1c.68-.24,1.5-.46,2.33-.66.51-.13,1-.25,1.52-.39a7.13,7.13,0,0,0,2.39-.93l3.06-.9c1.41,0,.82-.4,1.37-.57h0a17.77,17.77,0,0,1,5.65-.37,59,59,0,0,0,15.83-1.39h0c3-.57,6.8-.91,8.08-2a8.73,8.73,0,0,1,4.19-1.26c2.1-.26,3.8-.6,4.52-1.2h-.06l.08,0h0a7.14,7.14,0,0,0,2.59-.89C701.25,46.68,701.62,43.84,700.23,41Z" fill="url(#a)"/><path d="M179.22,85.24V53h10.83l1.62-12.57H179.22v-8c0-3.64,1-6.12,6.23-6.12h6.65V15a90.31,90.31,0,0,0-9.7-.49c-9.6,0-16.17,5.86-16.17,16.62v9.27H155.38V53h10.85V85.24Z" fill="#fff"/><text transform="translate(220.92 61.11)" font-size="36" fill="#fff" font-family="Montserrat-SemiBold, Montserrat" font-weight="600">@gee<tspan x="106.99" y="0" letter-spacing="-0.03em">k</tspan><tspan x="128.81" y="0" letter-spacing="-0.01em">y</tspan><tspan x="149.25" y="0">vij</tspan><tspan x="191.09" y="0" letter-spacing="-0.01em">a</tspan><tspan x="212.58" y="0">y</tspan></text></svg>